HIERARCHY
ROOT Hips
{
	OFFSET 0.00000 0.00000 0.00000
	CHANNELS 6 Xposition Yposition Zposition Yrotation Zrotation Xrotation 
	JOINT Lumbar
	{
		OFFSET 0 0 0
		CHANNELS 3 Zrotation Xrotation Yrotation
		JOINT Neck
		{
			OFFSET 0.00 0.2701 0.00
			CHANNELS 3 Zrotation Xrotation Yrotation
			End Site
			{
				OFFSET 0.00 0.1379 0.00
			}
		}
		JOINT RightShoulder
		{
			OFFSET 0.0119 0.2289 0.1181
			CHANNELS 3 Zrotation Xrotation Yrotation
			JOINT RightElbow
			{
				OFFSET 0.00 -0.1475 0.00
				CHANNELS 2 Zrotation Yrotation
				JOINT RightWrist
				{
					OFFSET 0.00 -0.1605 0.00
					CHANNELS 2 Zrotation Xrotation
					End Site
					{
						OFFSET 0.0040 -0.1068 0.0006
					}
				}
			}
		}
		JOINT LeftShoulder
		{
			OFFSET 0.0119 0.2289 -0.1181
			CHANNELS 3 Zrotation Xrotation Yrotation
			JOINT LeftElbow
			{
				OFFSET 0.00 -0.1475 0.00
				CHANNELS 2 Zrotation Yrotation
				JOINT LeftWrist
				{
					OFFSET 0.00 -0.1605 0.00
					CHANNELS 2 Zrotation Xrotation
					End Site
					{
						OFFSET 0.0040 -0.1068 -0.0006
					}
				}
			}
		}
	}
	JOINT RightHip
	{
		OFFSET 0.0316 -0.0424 0.0458
		CHANNELS 3 Zrotation Xrotation Yrotation
		JOINT RightKnee
		{
			OFFSET 0.00 -0.2438 0.00
			CHANNELS 1 Zrotation
			JOINT RightAnkle
			{
				OFFSET 0.00 -0.2449 0.00
				CHANNELS 3 Zrotation Xrotation Yrotation
				End Site
				{
					OFFSET 0.1237 -0.0542 0.0051
				}
			}
		}
	}
	JOINT LeftHip
	{
		OFFSET 0.0316 -0.0424 -0.0458
		CHANNELS 3 Zrotation Xrotation Yrotation
		JOINT LeftKnee
		{
			OFFSET 0.00 -0.2438 0.00
			CHANNELS 1 Zrotation
			JOINT LeftAnkle
			{
				OFFSET 0.00 -0.2449 0.00
				CHANNELS 3 Zrotation Xrotation Yrotation
				End Site
				{
					OFFSET 0.1237 -0.0542 -0.0051
				}
			}
		}
	}
}
MOTION
Frames: 19
Frame Time: 0.02
-0.00123 0.00094 -0.004 140.5775 -31.24581 0.25238 42.17795 2.742 -3.25156 -20.42584 -5.23051 -1.23444 -17.56108 -12.97068 -10.00653 35.64714 89.63809 4.22936 1.37197 -29.2584 17.18657 -5.62835 47.35674 -100.41049 13.43999 -1.54214 32.54329 -0.75452 -17.76736 -20.84352 -6.91605 -2.64104 -3.52045 37.7689 9.12896 0.6314 -26.57849 -9.85744 3.75536 4.23106
-0.00381 0.0009 -0.00376 140.26143 -31.30659 0.11878 42.41748 2.72922 -3.46123 -20.19785 -5.03724 -1.23618 -17.50297 -12.79666 -9.79065 35.81872 89.7286 4.30832 1.36572 -29.09439 17.25019 -5.47871 47.60564 -100.40861 13.38635 -1.54371 32.43665 -0.78093 -17.37039 -20.75981 -6.94016 -2.66243 -3.53391 37.5473 9.0311 0.77769 -26.51678 -9.80894 3.77508 4.23902
-0.00639 0.00085 -0.00353 139.94596 -31.36728 -0.01453 42.65646 2.71641 -3.67043 -19.97039 -4.84418 -1.23793 -17.4451 -12.62301 -9.57537 35.98945 89.81876 4.38701 1.35948 -28.93108 17.31335 -5.32895 47.85414 -100.4137 13.33496 -1.54647 32.33027 -0.80749 -16.97475 -20.67631 -6.96419 -2.6837 -3.5473 37.32621 8.93342 0.92386 -26.45529 -9.76052 3.79476 4.24696
-0.00896 0.0008 -0.00329 139.6308 -31.42788 -0.14774 42.89529 2.70365 -3.87949 -19.74308 -4.65145 -1.23966 -17.38715 -12.44949 -9.36013 36.16044 89.90897 4.46572 1.35324 -28.76761 17.37671 -5.17961 48.10235 -100.41347 13.28197 -1.54831 32.22393 -0.83386 -16.57905 -20.59285 -6.98822 -2.70501 -3.56072 37.10526 8.83584 1.06971 -26.39378 -9.71216 3.81443 4.25489
-0.01154 0.00076 -0.00305 139.31516 -31.48857 -0.2812 43.13459 2.69097 -4.08895 -19.51532 -4.45864 -1.2414 -17.32898 -12.27571 -9.14437 36.33242 89.99957 4.54472 1.34699 -28.60335 17.44069 -5.03078 48.35077 -100.40223 13.22552 -1.54827 32.11741 -0.85998 -16.18189 -20.50919 -7.01233 -2.72646 -3.57421 36.88388 8.73815 1.21568 -26.33205 -9.66373 3.83413 4.26285
-0.01412 0.00071 -0.00281 139.00008 -31.54928 -0.41419 43.37288 2.67788 -4.2976 -19.28848 -4.26506 -1.24315 -17.27178 -12.10233 -8.93013 36.50054 90.08882 4.62274 1.34078 -28.44204 17.50218 -4.87916 48.59939 -100.44079 13.1845 -1.55677 32.01134 -0.88746 -15.78942 -20.42605 -7.03619 -2.74734 -3.58739 36.66345 8.64052 1.36234 -26.27105 -9.61533 3.85373 4.27074
-0.0167 0.00066 -0.00258 138.68425 -31.60979 -0.54794 43.61294 2.66561 -4.50762 -19.06007 -4.07328 -1.24488 -17.21258 -11.92828 -8.71296 36.67618 90.18061 4.70263 1.33449 -28.27502 17.56842 -4.73287 48.84749 -100.383 13.11367 -1.54875 31.90436 -0.9122 -15.38821 -20.34196 -7.06052 -2.76933 -3.60118 36.44127 8.54282 1.50711 -26.20865 -9.56696 3.87355 4.27877
-0.01928 0.00061 -0.00234 138.36905 -31.67064 -0.68106 43.85139 2.65261 -4.71643 -18.83306 -3.87978 -1.24662 -17.15541 -11.75494 -8.49867 36.84499 90.27023 4.78085 1.32828 -28.1132 17.63061 -4.5825 49.09579 -100.40692 13.06816 -1.55474 31.79843 -0.93943 -14.99458 -20.25874 -7.08445 -2.79034 -3.61443 36.22087 8.44526 1.65422 -26.14755 -9.51851 3.89313 4.28665
-0.02184 0.00057 -0.0021 138.05466 -31.73134 -0.81324 44.0879 2.6386 -4.92369 -18.6078 -3.68426 -1.24838 -17.09995 -11.58199 -8.2871 37.00505 90.35652 4.85684 1.32212 -27.95798 17.68654 -4.42368 49.34561 -100.56035 13.06253 -1.58293 31.69292 -0.9699 -14.61195 -20.17657 -7.10778 -2.80999 -3.62694 36.00186 8.34754 1.80195 -26.08799 -9.47012 3.91257 4.29442
-0.02446 0.00052 -0.00188 137.73573 -31.79122 -0.95032 44.33568 2.63005 -5.13965 -18.37257 -3.50059 -1.25005 -17.03233 -11.40537 -8.05745 37.21424 90.45995 4.94508 1.31556 -27.7655 17.77455 -4.30305 49.59051 -100.05785 12.85433 -1.49864 31.58239 -0.9823 -14.17126 -20.08829 -7.13421 -2.83697 -3.64344 35.77248 8.24975 1.93939 -26.01941 -9.42186 3.93326 4.30305
-0.02698 0.00047 -0.0016 137.42634 -31.85388 -1.07733 44.55959 2.61022 -5.33736 -18.15835 -3.29181 -1.25191 -16.99188 -11.23744 -7.86756 37.32057 90.52848 5.00784 1.30993 -27.65116 17.79741 -4.10857 49.84328 -100.88145 13.05613 -1.64181 31.48413 -1.03245 -13.84972 -20.01297 -7.15432 -2.84882 -3.6517 35.56652 8.15274 2.10278 -25.96997 -9.37304 3.95104 4.30974
-0.02924 0.00042 -0.0012 137.14301 -31.9154 -1.17434 44.7176 2.55711 -5.48379 -18.00254 -3.01457 -1.2543 -17.01432 -11.08602 -7.77402 37.1356 90.48956 4.99701 1.30616 -27.75703 17.61804 -3.65165 50.13794 -105.86788 14.54062 -2.49842 31.40573 -1.19071 -13.88677 -19.97293 -7.15507 -2.8158 -3.63555 35.41251 8.05207 2.30173 -25.97275 -9.32515 3.96293 4.31228
-0.03142 0.00037 -0.00073 136.869 -31.98114 -1.26171 44.8513 2.49311 -5.61215 -17.86772 -2.71224 -1.25688 -17.06618 -10.94489 -7.72242 36.84923 90.41741 4.96121 1.30347 -27.94015 17.377 -3.13007 50.43621 -112.09643 16.40984 -3.5682 31.34206 -1.38617 -14.03829 -19.9459 -7.14983 -2.76813 -3.61139 35.28414 7.95293 2.53204 -25.99479 -9.27638 3.97159 4.31273
-0.03364 0.00032 -0.00026 136.59108 -32.05093 -1.35498 44.99698 2.43562 -5.74952 -17.72274 -2.42081 -1.25936 -17.11226 -10.80362 -7.66038 36.61485 90.36859 4.93932 1.30074 -28.08433 17.18031 -2.67918 50.7203 -117.40487 17.99722 -4.4805 31.28085 -1.56152 -14.11588 -19.9132 -7.14869 -2.72946 -3.5921 35.15233 7.85723 2.773 -26.0083 -9.22624 3.98022 4.31331
-0.03584 0.00026 0.0001 136.31282 -32.09637 -1.44163 45.14051 2.37151 -5.88334 -17.58022 -2.13054 -1.26186 -17.12652 -10.64244 -7.56344 36.35438 90.28645 4.90682 1.29605 -28.24546 16.91713 -2.06036 51.05958 -124.18601 20.02786 -5.64375 31.18166 -1.74998 -14.28334 -19.87982 -7.14181 -2.68123 -3.5678 34.98663 7.74534 2.91439 -26.02107 -9.18305 3.99478 4.31712
-0.03807 0.00022 0.0007 136.03621 -32.19251 -1.54001 45.28047 2.31864 -6.02043 -17.43779 -1.83307 -1.2644 -17.21385 -10.52614 -7.54738 36.12541 90.26397 4.89016 1.29576 -28.38882 16.77464 -1.76773 51.28194 -128.23322 21.23802 -6.3415 31.16425 -1.92055 -14.29432 -19.85057 -7.14537 -2.64901 -3.55181 34.89666 7.66597 3.26371 -26.03975 -9.12582 3.99669 4.31398
-0.0404 0.00022 0.00192 135.77229 -32.43606 -1.67151 45.4355 2.2991 -6.16999 -17.28852 -1.51199 -1.26694 -17.49694 -10.52279 -7.75949 35.99869 90.43145 4.92671 1.307 -28.47054 17.00894 -2.46452 51.20462 -124.08253 19.98595 -5.64304 31.37618 -2.02721 -13.81384 -19.8329 -7.17991 -2.66815 -3.5625 35.01732 7.68995 4.24033 -26.07149 -9.02424 3.96038 4.28979
-0.04275 0.00024 0.00338 135.50756 -32.72877 -1.81556 45.58387 2.29125 -6.32377 -17.13907 -1.18646 -1.26957 -17.85214 -10.56573 -8.04877 35.90916 90.65762 4.9796 1.32273 -28.53045 17.36224 -3.47933 51.00508 -117.19946 17.91307 -4.47936 31.66869 -2.11545 -13.17764 -19.81854 -7.22504 -2.70323 -3.58147 35.21174 7.7444 5.41504 -26.1082 -8.90955 3.91213 4.25908
-0.04508 0.00026 0.00475 135.23659 -32.99363 -1.95481 45.72334 2.27843 -6.47609 -16.99089 -0.86933 -1.27218 -18.17378 -10.59312 -8.29279 35.80869 90.84486 5.02256 1.33656 -28.59622 17.64157 -4.29939 50.84561 -111.79563 16.28407 -3.56746 31.91948 -2.21582 -12.63338 -19.80018 -7.26483 -2.72867 -3.59547 35.36738 7.77528 6.45752 -26.14168 -8.80477 3.87211 4.23296
